<svg width="225" height="34" viewBox="0 0 225 34" fill="none" xmlns="http://www.w3.org/2000/svg">
<g clip-path="url(#clip0_368_374)">
<path d="M44.0587 33.2331H33.2197L40.5807 20.717C41.0848 19.9041 41.5198 19.0503 41.8811 18.1647C42.1133 17.5843 42.2382 16.9667 42.2498 16.3417C42.2398 15.7089 42.1063 15.0841 41.8568 14.5024C41.4859 13.6491 41.0596 12.8209 40.5807 12.0231L33.5053 0.102539H44.1073L49.1125 9.18325C50.4872 11.6693 51.1745 14.1885 51.1745 16.7407C51.1673 18.0016 50.9944 19.2561 50.66 20.4719C50.3055 21.7778 49.7855 23.033 49.1125 24.207L44.0587 33.2331ZM70.4642 33.2331H59.6172L54.5532 24.201C53.8814 23.0288 53.362 21.7756 53.0077 20.4719C52.6717 19.2564 52.498 18.0018 52.4912 16.7407C52.4912 14.1885 53.1785 11.6693 54.5532 9.18325L59.5686 0.102539H70.1685L63.1012 12.0292C62.6231 12.8274 62.1969 13.6556 61.8251 14.5085C61.5744 15.0898 61.4409 15.7148 61.4321 16.3478C61.4437 16.9727 61.5686 17.5904 61.8008 18.1708C62.1629 19.056 62.5979 19.9097 63.1012 20.723L70.4642 33.2331Z" fill="#0F3534"/>
<path d="M99.1685 26.261C98.4613 24.7754 97.6384 23.3477 96.7074 21.9911C96.2643 21.3658 95.716 20.8223 95.0869 20.3848L94.9471 20.2956L94.6291 20.0931L90.42 17.4821C90.3275 17.4263 90.2207 17.3986 90.1128 17.4026C90.0049 17.4066 89.9004 17.4419 89.8123 17.5044C88.7463 18.2265 87.4882 18.6126 86.2007 18.6126C84.9131 18.6126 83.655 18.2265 82.589 17.5044C82.3215 17.3288 82.0689 17.1317 81.8335 16.9149C81.0455 16.1891 80.4508 15.2783 80.1034 14.2649C79.756 13.2515 79.6668 12.1674 79.8438 11.1108C80.0208 10.0542 80.4585 9.05843 81.1172 8.21356C81.7759 7.36869 82.6349 6.7014 83.6165 6.27207C84.598 5.84274 85.6711 5.66492 86.7386 5.75471C87.8062 5.84449 88.8345 6.19905 89.7306 6.78629C90.6266 7.37353 91.3621 8.17492 91.8704 9.11795C92.3788 10.061 92.644 11.1159 92.642 12.1872C92.6443 13.0029 92.4882 13.8112 92.1822 14.5673C92.1315 14.6866 92.124 14.8198 92.161 14.944C92.198 15.0683 92.2771 15.1757 92.3848 15.2479L96.7398 18.1708C97.0317 18.3666 97.3831 18.4535 97.7326 18.4165C98.0821 18.3795 98.4075 18.2208 98.6519 17.9682C99.207 17.3866 99.6836 16.7349 100.07 16.0297C100.89 14.5153 101.306 12.8153 101.279 11.0934C101.279 8.64445 100.671 6.60671 99.4561 4.98624C98.2407 3.36577 96.5879 2.15041 94.4975 1.32802C92.4071 0.505635 90.0412 0.112671 87.4241 0.112671H73.5488V33.2331H82.5222L82.5607 23.9032H84.2419C85.07 23.8847 85.8964 23.9871 86.6949 24.207C87.3251 24.3887 87.8993 24.7266 88.364 25.1895C88.8653 25.7226 89.2759 26.3344 89.5793 27.0003L92.6643 33.2331H102.531L99.1685 26.261Z" fill="#0F3534"/>
<path d="M89.8365 13.2202C89.7102 13.2202 89.5853 13.1952 89.4687 13.1467C89.3522 13.0981 89.2464 13.027 89.1575 12.9373C89.0687 12.8477 88.9984 12.7413 88.9508 12.6244C88.9033 12.5075 88.8793 12.3823 88.8804 12.256C88.8793 11.5214 88.587 10.8173 88.0676 10.2978C87.5482 9.77839 86.844 9.4861 86.1094 9.48503C85.8558 9.48503 85.6126 9.3843 85.4333 9.205C85.254 9.0257 85.1533 8.78252 85.1533 8.52895C85.1533 8.27539 85.254 8.0322 85.4333 7.8529C85.6126 7.6736 85.8558 7.57288 86.1094 7.57288C87.351 7.57448 88.5412 8.0684 89.4191 8.94632C90.297 9.82423 90.791 11.0145 90.7926 12.256C90.7936 12.3823 90.7697 12.5075 90.7221 12.6244C90.6746 12.7413 90.6043 12.8477 90.5154 12.9373C90.4265 13.027 90.3208 13.0981 90.2042 13.1467C90.0877 13.1952 89.9627 13.2202 89.8365 13.2202Z" fill="#0F3534"/>
<path d="M21.1147 0.266602V22.5481C21.1153 23.0995 20.8973 23.6286 20.5085 24.0197C20.1198 24.4107 19.5919 24.6318 19.0405 24.6344H11.159C10.8852 24.6344 10.6142 24.5805 10.3613 24.4758C10.1084 24.371 9.87867 24.2175 9.68512 24.0239C9.49157 23.8304 9.33804 23.6006 9.2333 23.3477C9.12855 23.0949 9.07464 22.8238 9.07464 22.5501V0.266602H0V26.3238C2.69606 29.0198 4.22133 30.5289 6.91739 33.2229H21.1208V33.2331H23.2193V33.2229H23.2639C25.9599 30.5289 27.4852 29.0198 30.1813 26.3238V0.266602H21.1147Z" fill="#0F3534"/>
<path d="M114.752 0.179504V8.52493H105.671V0.179504H114.752ZM105.671 15.9548H114.752V33.31H105.671V15.9548Z" fill="#89FB54"/>
<path d="M124.063 15.7765V18.1829H124.169C125.612 16.2114 127.492 15.2256 129.808 15.2256C131.802 15.2256 133.327 15.8333 134.382 17.0486C135.436 18.264 135.964 19.9033 135.964 21.9667V33.31H129.463V23.5487C129.463 21.5312 128.649 20.5225 127.021 20.5225C126.647 20.5114 126.276 20.5918 125.941 20.7567C125.606 20.9215 125.316 21.1659 125.096 21.4685C124.594 22.1607 124.338 23.0018 124.371 23.8566V33.3222H117.875V15.7765H124.063Z" fill="#89FB54"/>
<path d="M145.968 33.8974C143.308 33.8974 141.177 33.3478 139.574 32.2486C137.971 31.1494 137.157 29.6167 137.133 27.6505H143.357C143.472 29.1859 144.355 29.9536 146.005 29.9536C147.49 29.9536 148.233 29.4492 148.233 28.4405C148.233 27.845 147.923 27.4277 147.303 27.1866C146.389 26.8756 145.443 26.6624 144.484 26.5506C144.232 26.5263 144.048 26.504 143.935 26.4817C143.224 26.3663 142.622 26.2528 142.128 26.1374C141.552 25.9945 140.989 25.8048 140.445 25.5702C139.873 25.3631 139.355 25.0322 138.927 24.6011C138.498 24.17 138.171 23.6494 137.967 23.0767C137.692 22.3667 137.558 21.6099 137.572 20.8486C137.572 19.1066 138.34 17.7373 139.875 16.7407C141.411 15.7441 143.301 15.2451 145.547 15.2438C148.182 15.2438 150.207 15.7164 151.624 16.6617C153.04 17.607 153.803 18.9486 153.911 20.6865H147.791C147.656 19.6319 146.923 19.1045 145.592 19.1045C145.128 19.0872 144.669 19.2002 144.267 19.4307C144.1 19.5243 143.962 19.662 143.868 19.8289C143.774 19.9957 143.728 20.1852 143.734 20.3766C143.734 20.8121 144.014 21.122 144.577 21.3043C145.483 21.5595 146.409 21.7437 147.344 21.8553C148.17 21.9708 148.841 22.0781 149.355 22.1814C150.001 22.3239 150.634 22.5197 151.247 22.7668C151.892 22.9695 152.485 23.3128 152.981 23.772C153.478 24.2312 153.867 24.7949 154.119 25.4224C154.455 26.1979 154.619 27.0367 154.599 27.8814C154.599 29.8746 153.803 31.3762 152.209 32.3863C150.616 33.3964 148.536 33.9001 145.968 33.8974Z" fill="#89FB54"/>
<path d="M156.146 13.6436V8.72748H162.655V13.6436H156.146ZM156.146 33.3141V15.7765H162.655V33.3222L156.146 33.3141Z" fill="#89FB54"/>
<path d="M172.175 33.8974C169.837 33.8974 167.934 33.0724 166.467 31.4222C164.999 29.772 164.263 27.4682 164.261 24.5109C164.261 21.7601 164.983 19.5252 166.428 17.8062C167.873 16.0871 169.764 15.2269 172.1 15.2256C173.268 15.2256 174.219 15.4281 174.954 15.8332C175.746 16.2897 176.436 16.9048 176.979 17.6401H177.083V8.72748H183.581V33.3222H177.397V30.8732H177.328C176.158 32.8907 174.441 33.8988 172.175 33.8974ZM174.032 28.9813C174.977 28.9813 175.751 28.5398 176.354 27.6566C176.956 26.7734 177.26 25.6931 177.265 24.4157C177.265 23.1314 176.961 22.0599 176.354 21.2011C175.746 20.3422 174.972 19.9121 174.032 19.9108C173.087 19.9108 172.325 20.3233 171.745 21.1484C171.166 21.9735 170.872 23.0605 170.864 24.4096C170.864 25.76 171.15 26.8605 171.723 27.7113C172.296 28.562 173.064 28.9854 174.028 28.9813H174.032Z" fill="#89FB54"/>
<path d="M194.796 33.7962C191.961 33.7962 189.651 32.9245 187.869 31.1812C186.086 29.4378 185.198 27.2144 185.203 24.5109C185.203 21.829 186.074 19.6056 187.816 17.8406C189.558 16.0757 191.805 15.1925 194.557 15.1912C197.146 15.1912 199.301 15.9825 201.021 17.5652C203.13 19.5138 204.151 22.3678 204.082 26.1273H191.566C191.971 28.3055 193.118 29.3946 195.009 29.3946C196.156 29.3946 196.97 28.9584 197.452 28.0861H203.743C203.354 29.7362 202.242 31.1467 200.407 32.3175C198.87 33.3019 197 33.7948 194.796 33.7962ZM194.693 19.5583C192.975 19.5583 191.933 20.6015 191.566 22.6879H197.616C197.48 21.7034 197.152 20.9337 196.638 20.3848C196.391 20.1163 196.09 19.9036 195.755 19.7611C195.419 19.6185 195.057 19.5494 194.693 19.5583Z" fill="#89FB54"/>
<path d="M211.886 15.7766V18.424H211.99C213.274 16.4065 215.051 15.3978 217.321 15.3978C217.685 15.3773 218.048 15.436 218.387 15.57V21.1059H218.249C216.323 20.7858 214.833 21.0498 213.778 21.8979C212.724 22.7459 212.196 24.1558 212.196 26.1273V33.3222H205.698V15.7766H211.886Z" fill="#89FB54"/>
<path d="M217.493 33.3222V26.7451H224.198V33.3222H217.493Z" fill="#89FB54"/>
</g>
<defs>
<clipPath id="clip0_368_374">
<rect width="224.198" height="33.7949" fill="white" transform="translate(0 0.102539)"/>
</clipPath>
</defs>
</svg>
