<svg width="182" height="27" viewBox="0 0 182 27" fill="none" xmlns="http://www.w3.org/2000/svg">
<path d="M10.608 26.384C7.42933 26.384 4.944 25.4987 3.152 23.728C1.36 21.9573 0.464 19.4293 0.464 16.144V3.6H5.648V15.952C5.648 18.0853 6.08533 19.6213 6.96 20.56C7.83467 21.4987 9.06133 21.968 10.64 21.968C12.2187 21.968 13.4453 21.4987 14.32 20.56C15.1947 19.6213 15.632 18.0853 15.632 15.952V3.6H20.752V16.144C20.752 19.4293 19.856 21.9573 18.064 23.728C16.272 25.4987 13.7867 26.384 10.608 26.384ZM22.9223 26L32.5543 12.72V16.496L23.3383 3.6H29.2263L35.5943 12.592L33.1303 12.624L39.4023 3.6H45.0343L35.8823 16.272V12.56L45.5783 26H39.5943L33.0023 16.496H35.3703L28.8743 26H22.9223ZM47.5273 26V3.6H57.2233C59.2286 3.6 60.9566 3.93067 62.4073 4.592C63.8579 5.232 64.9779 6.16 65.7673 7.376C66.5566 8.592 66.9513 10.0427 66.9513 11.728C66.9513 13.392 66.5566 14.832 65.7673 16.048C64.9779 17.2427 63.8579 18.16 62.4073 18.8C60.9566 19.44 59.2286 19.76 57.2233 19.76H50.4073L52.7113 17.488V26H47.5273ZM61.7673 26L56.1673 17.872H61.7033L67.3673 26H61.7673ZM52.7113 18.064L50.4073 15.632H56.9353C58.5353 15.632 59.7299 15.2907 60.5193 14.608C61.3086 13.904 61.7033 12.944 61.7033 11.728C61.7033 10.4907 61.3086 9.53067 60.5193 8.848C59.7299 8.16533 58.5353 7.824 56.9353 7.824H50.4073L52.7113 5.36V18.064Z" fill="white"/>
<path d="M70.6265 26V8.784H75.6185V26H70.6265ZM73.1225 6.384C72.2052 6.384 71.4585 6.11733 70.8825 5.584C70.3065 5.05067 70.0185 4.38933 70.0185 3.6C70.0185 2.81067 70.3065 2.14933 70.8825 1.616C71.4585 1.08267 72.2052 0.815998 73.1225 0.815998C74.0398 0.815998 74.7865 1.072 75.3625 1.584C75.9385 2.07467 76.2265 2.71467 76.2265 3.504C76.2265 4.336 75.9385 5.02933 75.3625 5.584C74.8078 6.11733 74.0612 6.384 73.1225 6.384ZM90.6355 8.528C92.0008 8.528 93.2168 8.80533 94.2835 9.36C95.3715 9.89333 96.2248 10.7253 96.8435 11.856C97.4622 12.9653 97.7715 14.3947 97.7715 16.144V26H92.7795V16.912C92.7795 15.5253 92.4702 14.5013 91.8515 13.84C91.2542 13.1787 90.4008 12.848 89.2915 12.848C88.5022 12.848 87.7875 13.0187 87.1475 13.36C86.5288 13.68 86.0382 14.1813 85.6755 14.864C85.3342 15.5467 85.1635 16.4213 85.1635 17.488V26H80.1715V8.784H84.9395V13.552L84.0435 12.112C84.6622 10.96 85.5475 10.0747 86.6995 9.456C87.8515 8.83733 89.1635 8.528 90.6355 8.528ZM108.008 26.256C106.536 26.256 105.118 26.0853 103.752 25.744C102.408 25.3813 101.342 24.9333 100.552 24.4L102.216 20.816C103.006 21.3067 103.934 21.712 105 22.032C106.088 22.3307 107.155 22.48 108.2 22.48C109.352 22.48 110.163 22.3413 110.632 22.064C111.123 21.7867 111.368 21.4027 111.368 20.912C111.368 20.5067 111.176 20.208 110.792 20.016C110.43 19.8027 109.939 19.6427 109.32 19.536C108.702 19.4293 108.019 19.3227 107.272 19.216C106.547 19.1093 105.811 18.9707 105.064 18.8C104.318 18.608 103.635 18.3307 103.016 17.968C102.398 17.6053 101.896 17.1147 101.512 16.496C101.15 15.8773 100.968 15.0773 100.968 14.096C100.968 13.008 101.278 12.048 101.896 11.216C102.536 10.384 103.454 9.73333 104.648 9.264C105.843 8.77333 107.272 8.528 108.936 8.528C110.11 8.528 111.304 8.656 112.52 8.912C113.736 9.168 114.75 9.54133 115.56 10.032L113.896 13.584C113.064 13.0933 112.222 12.7627 111.368 12.592C110.536 12.4 109.726 12.304 108.936 12.304C107.827 12.304 107.016 12.4533 106.504 12.752C105.992 13.0507 105.736 13.4347 105.736 13.904C105.736 14.3307 105.918 14.6507 106.28 14.864C106.664 15.0773 107.166 15.248 107.784 15.376C108.403 15.504 109.075 15.6213 109.8 15.728C110.547 15.8133 111.294 15.952 112.04 16.144C112.787 16.336 113.459 16.6133 114.056 16.976C114.675 17.3173 115.176 17.7973 115.56 18.416C115.944 19.0133 116.136 19.8027 116.136 20.784C116.136 21.8507 115.816 22.8 115.176 23.632C114.536 24.4427 113.608 25.0827 112.392 25.552C111.198 26.0213 109.736 26.256 108.008 26.256ZM119.136 26V8.784H124.128V26H119.136ZM121.632 6.384C120.715 6.384 119.968 6.11733 119.392 5.584C118.816 5.05067 118.528 4.38933 118.528 3.6C118.528 2.81067 118.816 2.14933 119.392 1.616C119.968 1.08267 120.715 0.815998 121.632 0.815998C122.55 0.815998 123.296 1.072 123.872 1.584C124.448 2.07467 124.736 2.71467 124.736 3.504C124.736 4.336 124.448 5.02933 123.872 5.584C123.318 6.11733 122.571 6.384 121.632 6.384ZM136.074 26.256C134.452 26.256 132.991 25.8933 131.69 25.168C130.388 24.4213 129.354 23.3867 128.586 22.064C127.839 20.7413 127.466 19.184 127.466 17.392C127.466 15.5787 127.839 14.0107 128.586 12.688C129.354 11.3653 130.388 10.3413 131.69 9.616C132.991 8.89067 134.452 8.528 136.074 8.528C137.524 8.528 138.794 8.848 139.882 9.488C140.97 10.128 141.812 11.0987 142.41 12.4C143.007 13.7013 143.306 15.3653 143.306 17.392C143.306 19.3973 143.018 21.0613 142.442 22.384C141.866 23.6853 141.034 24.656 139.946 25.296C138.879 25.936 137.588 26.256 136.074 26.256ZM136.938 22.16C137.748 22.16 138.484 21.968 139.146 21.584C139.807 21.2 140.33 20.656 140.714 19.952C141.119 19.2267 141.322 18.3733 141.322 17.392C141.322 16.3893 141.119 15.536 140.714 14.832C140.33 14.128 139.807 13.584 139.146 13.2C138.484 12.816 137.748 12.624 136.938 12.624C136.106 12.624 135.359 12.816 134.698 13.2C134.036 13.584 133.503 14.128 133.098 14.832C132.714 15.536 132.522 16.3893 132.522 17.392C132.522 18.3733 132.714 19.2267 133.098 19.952C133.503 20.656 134.036 21.2 134.698 21.584C135.359 21.968 136.106 22.16 136.938 22.16ZM141.45 26V22.48L141.546 17.36L141.226 12.272V2.256H146.218V26H141.45ZM159.302 26.256C157.339 26.256 155.611 25.872 154.118 25.104C152.646 24.336 151.504 23.2907 150.694 21.968C149.883 20.624 149.478 19.0987 149.478 17.392C149.478 15.664 149.872 14.1387 150.662 12.816C151.472 11.472 152.571 10.4267 153.958 9.68C155.344 8.912 156.912 8.528 158.662 8.528C160.347 8.528 161.862 8.89067 163.206 9.616C164.571 10.32 165.648 11.344 166.438 12.688C167.227 14.0107 167.622 15.6 167.622 17.456C167.622 17.648 167.611 17.872 167.59 18.128C167.568 18.3627 167.547 18.5867 167.526 18.8H153.542V15.888H164.902L162.982 16.752C162.982 15.856 162.8 15.0773 162.438 14.416C162.075 13.7547 161.574 13.2427 160.934 12.88C160.294 12.496 159.547 12.304 158.694 12.304C157.84 12.304 157.083 12.496 156.422 12.88C155.782 13.2427 155.28 13.7653 154.918 14.448C154.555 15.1093 154.374 15.8987 154.374 16.816V17.584C154.374 18.5227 154.576 19.3547 154.982 20.08C155.408 20.784 155.995 21.328 156.742 21.712C157.51 22.0747 158.406 22.256 159.43 22.256C160.347 22.256 161.147 22.1173 161.83 21.84C162.534 21.5627 163.174 21.1467 163.75 20.592L166.406 23.472C165.616 24.368 164.624 25.0613 163.43 25.552C162.235 26.0213 160.859 26.256 159.302 26.256ZM170.865 26V8.784H175.633V13.648L174.961 12.24C175.473 11.024 176.295 10.1067 177.425 9.488C178.556 8.848 179.932 8.528 181.553 8.528V13.136C181.34 13.1147 181.148 13.104 180.977 13.104C180.807 13.0827 180.625 13.072 180.433 13.072C179.068 13.072 177.959 13.4667 177.105 14.256C176.273 15.024 175.857 16.2293 175.857 17.872V26H170.865Z" fill="#9DE57B"/>
</svg>
