<svg width="50" height="50" viewBox="0 0 50 50" fill="none" xmlns="http://www.w3.org/2000/svg">
<g clip-path="url(#clip0_407_206)">
<path fill-rule="evenodd" clip-rule="evenodd" d="M50 24.976C50 38.8 38.8 50 24.976 50C11.2 50 0 38.8 0 24.976C0 11.2 11.2 0 24.976 0C38.8 0 50 11.2 50 24.976Z" fill="#239FDB"/>
<path d="M30.7294 40.1037V38.76C30.7294 38.0506 31.1689 37.4162 31.8335 37.1673L34.1314 36.3058V34.836M36.7023 34.837V36.3068L39.0002 37.1683C39.6637 37.4173 40.1044 38.0516 40.1044 38.761V40.1048M25.0356 19.2683C24.1057 19.2669 23.2142 18.8968 22.5567 18.2391C21.8993 17.5815 21.5294 16.6899 21.5283 15.76V14.1006H22.57V15.76C22.57 17.1204 23.6762 18.2266 25.0356 18.2266C26.395 18.2266 27.5023 17.1193 27.5023 15.76V14.1006H28.5439V15.76C28.5434 16.6903 28.1736 17.5823 27.5158 18.2401C26.8579 18.8979 25.9659 19.2677 25.0356 19.2683Z" fill="white"/>
<path d="M22.8331 18.3056H23.8748V19.6567H22.8331V18.3056ZM26.2644 18.3056H27.306V19.6567H26.2644V18.3056ZM28.0237 15.0129C27.9458 15.0128 27.8688 14.9952 27.7986 14.9615C27.7283 14.9278 27.6664 14.8788 27.6175 14.8181L26.8446 13.8577H23.2258L22.455 14.8171C22.4783 14.9028 22.4792 14.993 22.4576 15.0792C22.4361 15.1654 22.3929 15.2446 22.332 15.3093C22.2712 15.374 22.1948 15.4221 22.1101 15.4489C22.0254 15.4756 21.9353 15.4803 21.8483 15.4623C21.7613 15.4444 21.6803 15.4044 21.6132 15.3463C21.546 15.2882 21.4949 15.2138 21.4646 15.1303C21.4344 15.0468 21.426 14.9569 21.4404 14.8692C21.4548 14.7816 21.4913 14.6991 21.5466 14.6296L21.0352 12.7587C20.9796 12.5168 20.9797 12.2654 21.0352 12.0235C21.0908 11.7815 21.2005 11.5553 21.356 11.3619C21.5617 11.1072 21.8394 10.9206 22.1529 10.8264C22.2413 10.4329 22.4556 10.0789 22.7633 9.81811C22.9695 9.64201 23.2118 9.51341 23.4732 9.4414C23.7346 9.3694 24.0086 9.35575 24.2758 9.40144L27.5112 9.94207C28.0144 10.0254 28.4539 10.3014 28.7477 10.7181C29.0425 11.1358 29.155 11.6442 29.0644 12.1473L28.5331 14.6014C28.5081 14.7179 28.4439 14.8223 28.3512 14.8972C28.2585 14.9721 28.1429 15.0129 28.0237 15.0129ZM23.9696 10.4171C23.7741 10.4167 23.585 10.4861 23.4362 10.6129C23.3446 10.6901 23.2711 10.7865 23.2207 10.8952C23.1703 11.0039 23.1443 11.1223 23.1446 11.2421C23.1446 11.5296 22.9112 11.7983 22.6237 11.7983C22.5358 11.7981 22.4489 11.8177 22.3695 11.8556C22.2901 11.8935 22.2203 11.9487 22.1651 12.0172C22.1099 12.0857 22.0708 12.1657 22.0507 12.2513C22.0305 12.3369 22.0299 12.426 22.0487 12.5119L22.2841 13.3691L22.5716 13.0108C22.6203 12.9497 22.682 12.9004 22.7524 12.8664C22.8227 12.8325 22.8998 12.8149 22.9779 12.815H27.0956C27.2529 12.815 27.4029 12.8858 27.5019 13.0098L27.7466 13.315L28.0435 11.9441C28.0615 11.8351 28.0578 11.7236 28.0326 11.616C28.0074 11.5084 27.9612 11.4068 27.8966 11.3171C27.8323 11.2246 27.75 11.146 27.6546 11.0861C27.5592 11.0261 27.4527 10.986 27.3414 10.9681L24.106 10.4275C24.0608 10.421 24.0152 10.4175 23.9696 10.4171ZM18.7821 26.0296C18.6439 26.0296 18.5115 25.9747 18.4138 25.877C18.3161 25.7793 18.2612 25.6469 18.2612 25.5087V23.7296C18.2612 22.8598 18.7248 22.04 19.4716 21.591L21.8019 20.1931C21.8605 20.158 21.9256 20.1347 21.9932 20.1247C22.0609 20.1147 22.1299 20.1181 22.1963 20.1347C22.2626 20.1513 22.325 20.1809 22.38 20.2216C22.4349 20.2624 22.4813 20.3136 22.5164 20.3723C22.5516 20.431 22.5748 20.496 22.5849 20.5637C22.5949 20.6313 22.5915 20.7003 22.5749 20.7667C22.5582 20.833 22.5287 20.8955 22.4879 20.9504C22.4471 21.0053 22.396 21.0517 22.3373 21.0869L20.0081 22.4848C19.7937 22.6144 19.6163 22.797 19.4928 23.015C19.3693 23.233 19.3039 23.479 19.3029 23.7296V25.5087C19.3029 25.6469 19.248 25.7793 19.1503 25.877C19.0527 25.9747 18.9202 26.0296 18.7821 26.0296ZM31.2821 26.0296C31.1439 26.0296 31.0115 25.9747 30.9138 25.877C30.8161 25.7793 30.7612 25.6469 30.7612 25.5087V23.7296C30.7612 23.2233 30.4914 22.7462 30.056 22.4848L27.7279 21.0869C27.6692 21.0517 27.618 21.0053 27.5773 20.9504C27.5365 20.8955 27.507 20.833 27.4903 20.7667C27.4737 20.7003 27.4703 20.6313 27.4803 20.5637C27.4903 20.496 27.5136 20.431 27.5487 20.3723C27.5839 20.3136 27.6303 20.2624 27.6852 20.2216C27.7401 20.1809 27.8026 20.1513 27.8689 20.1347C27.9353 20.1181 28.0043 20.1147 28.0719 20.1247C28.1396 20.1347 28.2046 20.158 28.2633 20.1931L30.5925 21.591C30.9608 21.8136 31.2656 22.1273 31.4776 22.5018C31.6896 22.8764 31.8016 23.2992 31.8029 23.7296V25.5087C31.8029 25.6469 31.748 25.7793 31.6503 25.877C31.5527 25.9747 31.4202 26.0296 31.2821 26.0296Z" fill="white"/>
<path d="M21.3866 26.0024C21.0991 26.0024 20.8658 25.7962 20.8658 25.5076C20.8658 25.092 20.7314 24.7451 20.4866 24.4785L20.0751 24.0264C20.029 23.9759 19.9933 23.9168 19.9701 23.8526C19.9468 23.7883 19.9364 23.72 19.9395 23.6518C19.9426 23.5835 19.9591 23.5165 19.9881 23.4545C20.0171 23.3926 20.058 23.337 20.1085 23.2909C20.159 23.2449 20.218 23.2091 20.2823 23.1859C20.3466 23.1626 20.4148 23.1522 20.4831 23.1553C20.5514 23.1584 20.6184 23.1749 20.6803 23.2039C20.7422 23.2329 20.7978 23.2738 20.8439 23.3243L21.2554 23.7753C21.6751 24.2337 21.9074 24.8316 21.9074 25.4555C21.9074 25.7441 21.6751 26.0024 21.3866 26.0024ZM28.6741 26.0024C28.3866 26.0024 28.1533 25.7962 28.1533 25.5076C28.1533 24.8326 28.3856 24.2347 28.8053 23.7753L29.2168 23.3243C29.2629 23.2738 29.3185 23.2329 29.3804 23.2039C29.4423 23.1749 29.5093 23.1584 29.5776 23.1553C29.6459 23.1522 29.7141 23.1626 29.7784 23.1859C29.8427 23.2091 29.9017 23.2449 29.9522 23.2909C30.0027 23.337 30.0436 23.3926 30.0726 23.4545C30.1016 23.5165 30.1181 23.5835 30.1212 23.6518C30.1243 23.72 30.1139 23.7883 30.0906 23.8526C30.0674 23.9168 30.0317 23.9759 29.9856 24.0264L29.5741 24.4774C29.3299 24.7446 29.1946 25.0936 29.1949 25.4555C29.1949 25.7441 28.9626 26.0024 28.6741 26.0024ZM23.3939 22.8045L23.3658 22.8035C23.2925 22.7997 23.2209 22.7804 23.1557 22.7468C23.0905 22.7132 23.0332 22.6661 22.9876 22.6087L21.672 20.9649C21.595 20.8683 21.5548 20.7476 21.5587 20.6241C21.5625 20.5007 21.61 20.3826 21.6929 20.291L22.5814 19.3055C22.6565 19.2222 22.7565 19.1655 22.8665 19.1437C22.9765 19.1219 23.0906 19.1363 23.1918 19.1847L25.2626 20.1701C25.3377 20.2061 25.403 20.2595 25.4532 20.3259C25.5033 20.3923 25.5369 20.4697 25.5509 20.5517C25.565 20.6337 25.5592 20.7179 25.5341 20.7972C25.5089 20.8766 25.4652 20.9487 25.4064 21.0076L23.7626 22.6514C23.6648 22.7492 23.5322 22.8042 23.3939 22.8045ZM22.7616 20.6597L23.4366 21.5045L24.1481 20.793L23.0939 20.291L22.7616 20.6597Z" fill="white"/>
<path d="M26.6804 22.8044C26.5422 22.8041 26.4098 22.7495 26.3116 22.6523L24.6689 21.0086C24.6104 20.9496 24.5668 20.8774 24.5418 20.7981C24.5167 20.7189 24.511 20.6348 24.5251 20.5528C24.5392 20.4709 24.5726 20.3935 24.6226 20.3271C24.6726 20.2607 24.7378 20.2072 24.8127 20.1711L26.8824 19.1857C26.9836 19.1373 27.0977 19.1229 27.2077 19.1447C27.3177 19.1664 27.4178 19.2232 27.4929 19.3065L28.3814 20.2919C28.464 20.3837 28.5115 20.5017 28.5153 20.6251C28.5191 20.7485 28.479 20.8692 28.4022 20.9659L27.0866 22.6096C27.0407 22.6668 26.9834 22.7137 26.9182 22.7472C26.8531 22.7808 26.7816 22.8003 26.7085 22.8044H26.6804ZM25.9272 20.793L26.6387 21.5034L27.3137 20.6596L26.9814 20.2909L25.9272 20.793Z" fill="white"/>
<path d="M25.0282 26.0289C24.89 26.0289 24.7575 25.974 24.6599 25.8764C24.5622 25.7787 24.5073 25.6462 24.5073 25.5081V20.6185C24.5073 20.4804 24.5622 20.3479 24.6599 20.2502C24.7575 20.1525 24.89 20.0977 25.0282 20.0977C25.1663 20.0977 25.2988 20.1525 25.3964 20.2502C25.4941 20.3479 25.549 20.4804 25.549 20.6185V25.5081C25.549 25.6462 25.4941 25.7787 25.3964 25.8764C25.2988 25.974 25.1663 26.0289 25.0282 26.0289ZM25.0323 32.8122C24.8942 32.8122 24.7617 32.7574 24.664 32.6597C24.5664 32.562 24.5115 32.4295 24.5115 32.2914V27.6039C24.5115 27.4658 24.5664 27.3333 24.664 27.2356C24.7617 27.1379 24.8942 27.0831 25.0323 27.0831C25.1705 27.0831 25.3029 27.1379 25.4006 27.2356C25.4983 27.3333 25.5532 27.4658 25.5532 27.6039V32.2914C25.5532 32.5799 25.3209 32.8122 25.0323 32.8122Z" fill="white"/>
<path d="M19.824 35.9373C19.7104 35.9365 19.6002 35.8987 19.5101 35.8296C19.42 35.7606 19.3548 35.664 19.3246 35.5546C19.2943 35.4451 19.3005 35.3288 19.3423 35.2232C19.3842 35.1176 19.4593 35.0286 19.5563 34.9696L24.7646 31.8446C24.8233 31.8094 24.8883 31.7862 24.956 31.7761C25.0237 31.7661 25.0927 31.7695 25.159 31.7861C25.2254 31.8028 25.2878 31.8323 25.3427 31.8731C25.3977 31.9139 25.4441 31.965 25.4792 32.0237C25.5144 32.0824 25.5376 32.1474 25.5476 32.2151C25.5577 32.2828 25.5543 32.3518 25.5376 32.4181C25.521 32.4845 25.4914 32.5469 25.4507 32.6018C25.4099 32.6568 25.3587 32.7032 25.3 32.7383L20.0917 35.8633C20.011 35.9122 19.9184 35.9378 19.824 35.9373Z" fill="white"/>
<path d="M30.2404 35.9373C30.1461 35.9378 30.0534 35.9122 29.9727 35.8633L24.7644 32.7383C24.7057 32.7032 24.6545 32.6568 24.6138 32.6018C24.573 32.5469 24.5434 32.4845 24.5268 32.4181C24.5102 32.3518 24.5068 32.2828 24.5168 32.2151C24.5268 32.1474 24.5501 32.0824 24.5852 32.0237C24.6204 31.965 24.6667 31.9139 24.7217 31.8731C24.7766 31.8323 24.8391 31.8028 24.9054 31.7861C24.9718 31.7695 25.0407 31.7661 25.1084 31.7761C25.1761 31.7862 25.2411 31.8094 25.2998 31.8446L30.5081 34.9696C30.6059 35.0281 30.6818 35.1171 30.7241 35.2229C30.7665 35.3287 30.773 35.4455 30.7426 35.5553C30.7122 35.6651 30.6466 35.762 30.5559 35.831C30.4652 35.9 30.3544 35.9373 30.2404 35.9373ZM14.5717 35.7914C13.8699 35.7906 13.1972 35.5115 12.701 35.0153C12.2048 34.5191 11.9256 33.8463 11.9248 33.1446V31.9633H12.9665V33.1446C12.9665 34.03 13.6863 34.7498 14.5717 34.7498C15.4571 34.7498 16.1769 34.03 16.1769 33.1446V31.9633H17.2186V33.1446C17.218 33.8464 16.939 34.5193 16.4427 35.0156C15.9464 35.5118 15.2735 35.7909 14.5717 35.7914Z" fill="white"/>
<path d="M16.699 32.6091C16.6142 32.609 16.5308 32.5882 16.4558 32.5487C16.3809 32.5091 16.3167 32.4519 16.2687 32.382L15.8333 31.7445H13.3281L12.9854 32.3456C12.9393 32.432 12.8688 32.5029 12.7826 32.5496C12.6965 32.5962 12.5986 32.6166 12.501 32.6081C12.4038 32.6021 12.3102 32.569 12.2308 32.5125C12.1514 32.4559 12.0895 32.3783 12.0521 32.2883L11.4656 30.8862C11.351 30.3935 11.449 29.982 11.7062 29.6623C11.8635 29.4664 12.0687 29.3237 12.2958 29.2404C12.3781 28.9456 12.5438 28.6862 12.7781 28.4873C12.9476 28.3442 13.1461 28.2396 13.36 28.1808C13.5738 28.122 13.7979 28.1103 14.0167 28.1466L16.4396 28.5508C16.8521 28.6196 17.2115 28.8456 17.4531 29.1883C17.6927 29.53 17.7833 29.9446 17.7094 30.355L17.2 32.2248C17.1701 32.3349 17.1049 32.4321 17.0144 32.5015C16.9239 32.571 16.813 32.6088 16.699 32.6091ZM13.7646 29.1675C13.65 29.1676 13.5392 29.2086 13.4521 29.2831C13.3979 29.3284 13.3543 29.3852 13.3246 29.4493C13.2949 29.5134 13.2797 29.5833 13.2802 29.6539C13.2802 29.9414 13.0469 30.2008 12.7594 30.2008C12.713 30.2005 12.6672 30.2106 12.6254 30.2304C12.5835 30.2503 12.5466 30.2793 12.5175 30.3153C12.4884 30.3513 12.4677 30.3935 12.4571 30.4386C12.4465 30.4837 12.4462 30.5306 12.4563 30.5758L12.6021 30.9185C12.65 30.8511 12.7135 30.7961 12.7871 30.7582C12.8606 30.7203 12.9422 30.7006 13.025 30.7008H16.1083C16.1804 30.7009 16.2517 30.7159 16.3177 30.7449C16.3837 30.774 16.4429 30.8164 16.4917 30.8695L16.6958 30.1227C16.7064 30.0029 16.6731 29.8833 16.6021 29.7862C16.5638 29.7308 16.5147 29.6837 16.4578 29.6477C16.4009 29.6117 16.3373 29.5876 16.2708 29.5768L13.8479 29.1727C13.8202 29.1695 13.7924 29.1677 13.7646 29.1675ZM9.89583 40.6248C9.7577 40.6248 9.62522 40.5699 9.52755 40.4722C9.42987 40.3745 9.375 40.2421 9.375 40.1039V38.7602C9.375 37.8393 9.95521 37.0029 10.8167 36.68L12.7771 35.9445V34.8373C12.7771 34.6991 12.832 34.5666 12.9296 34.469C13.0273 34.3713 13.1598 34.3164 13.2979 34.3164C13.436 34.3164 13.5685 34.3713 13.6662 34.469C13.7639 34.5666 13.8187 34.6991 13.8187 34.8373V36.306C13.8187 36.4119 13.7864 36.5154 13.7261 36.6025C13.6658 36.6896 13.5804 36.7562 13.4813 36.7935L11.1833 37.655C10.9588 37.7401 10.7653 37.8912 10.6284 38.0886C10.4916 38.2859 10.4177 38.52 10.4167 38.7602V40.1039C10.4167 40.2421 10.3618 40.3745 10.2641 40.4722C10.1664 40.5699 10.034 40.6248 9.89583 40.6248ZM19.2708 40.6248C19.1327 40.6248 19.0002 40.5699 18.9025 40.4722C18.8049 40.3745 18.75 40.2421 18.75 40.1039V38.7602C18.75 38.2706 18.4417 37.8268 17.9844 37.6539L15.6854 36.7925C15.5862 36.7553 15.5007 36.6887 15.4403 36.6016C15.38 36.5144 15.3478 36.4109 15.3479 36.305V34.8362C15.3479 34.6981 15.4028 34.5656 15.5005 34.4679C15.5981 34.3703 15.7306 34.3154 15.8688 34.3154C16.0069 34.3154 16.1394 34.3703 16.237 34.4679C16.3347 34.5656 16.3896 34.6981 16.3896 34.8362V35.9435L18.351 36.6789C18.7733 36.8397 19.137 37.1246 19.3941 37.4961C19.6513 37.8676 19.7899 38.3083 19.7917 38.7602V40.1039C19.7917 40.2421 19.7368 40.3745 19.6391 40.4722C19.5414 40.5699 19.409 40.6248 19.2708 40.6248Z" fill="white"/>
<path d="M14.5831 37.8337C14.1042 37.8331 13.6451 37.6426 13.3065 37.304C12.9679 36.9654 12.7774 36.5063 12.7769 36.0274V34.567H13.8185V36.0274C13.8258 36.2252 13.9095 36.4124 14.052 36.5497C14.1945 36.687 14.3847 36.7638 14.5826 36.7638C14.7805 36.7638 14.9707 36.687 15.1132 36.5497C15.2556 36.4124 15.3393 36.2252 15.3466 36.0274V34.567H16.3883V36.0274C16.3883 37.0222 15.5789 37.8337 14.5831 37.8337ZM35.405 35.792C34.7032 35.7912 34.0305 35.512 33.5343 35.0158C33.0381 34.5196 32.7589 33.8469 32.7581 33.1451V31.9639H33.7998V33.1451C33.7998 34.0305 34.5196 34.7503 35.405 34.7503C36.2904 34.7503 37.0102 34.0305 37.0102 33.1451V31.9639H38.0519V33.1451C38.0513 33.8469 37.7723 34.5199 37.276 35.0161C36.7797 35.5124 36.1068 35.7914 35.405 35.792Z" fill="white"/>
<path d="M37.5325 32.6091C37.4477 32.6089 37.3643 32.5882 37.2893 32.5486C37.2144 32.509 37.1502 32.4519 37.1022 32.382L36.6668 31.7445H34.1616L33.8189 32.3455C33.7724 32.4316 33.7019 32.5023 33.6158 32.549C33.5298 32.5956 33.4321 32.6161 33.3345 32.608C33.2373 32.6021 33.1436 32.5689 33.0643 32.5124C32.9849 32.4559 32.923 32.3782 32.8856 32.2882L32.2991 30.8862C32.1845 30.3934 32.2825 29.982 32.5397 29.6622C32.697 29.4664 32.9022 29.3237 33.1293 29.2403C33.2116 28.9455 33.3772 28.6862 33.6116 28.4872C33.7811 28.3442 33.9796 28.2396 34.1935 28.1808C34.4073 28.122 34.6314 28.1103 34.8502 28.1466L37.2731 28.5507C37.6856 28.6195 38.045 28.8455 38.2866 29.1882C38.5262 29.5299 38.6168 29.9445 38.5429 30.3549L38.0335 32.2247C38.0036 32.3348 37.9384 32.432 37.8479 32.5015C37.7574 32.5709 37.6465 32.6087 37.5325 32.6091ZM34.5981 29.1674C34.4835 29.1675 34.3727 29.2085 34.2856 29.283C34.2314 29.3283 34.1878 29.3851 34.1581 29.4492C34.1284 29.5133 34.1132 29.5832 34.1137 29.6539C34.1137 29.9414 33.8804 30.2007 33.5929 30.2007C33.5465 30.2004 33.5007 30.2106 33.4589 30.2304C33.417 30.2502 33.3801 30.2792 33.351 30.3152C33.3219 30.3513 33.3012 30.3934 33.2906 30.4385C33.28 30.4836 33.2797 30.5305 33.2897 30.5757L33.4356 30.9184C33.4835 30.851 33.547 30.796 33.6206 30.7581C33.6941 30.7203 33.7757 30.7006 33.8585 30.7007H36.9418C37.0139 30.7008 37.0852 30.7158 37.1512 30.7449C37.2172 30.7739 37.2764 30.8164 37.3252 30.8695L37.5293 30.1226C37.5399 30.0028 37.5066 29.8832 37.4356 29.7862C37.3973 29.7307 37.3482 29.6836 37.2913 29.6477C37.2344 29.6117 37.1708 29.5876 37.1043 29.5768L34.6814 29.1726C34.6537 29.1694 34.6259 29.1677 34.5981 29.1674ZM30.7293 40.6247C30.5912 40.6247 30.4587 40.5698 30.361 40.4721C30.2634 40.3745 30.2085 40.242 30.2085 40.1039V38.7601C30.2085 37.8393 30.7887 37.0028 31.6502 36.6799L33.6106 35.9445V34.8372C33.6106 34.6991 33.6655 34.5666 33.7631 34.4689C33.8608 34.3712 33.9933 34.3164 34.1314 34.3164C34.2695 34.3164 34.402 34.3712 34.4997 34.4689C34.5974 34.5666 34.6522 34.6991 34.6522 34.8372V36.3059C34.6522 36.4119 34.6199 36.5153 34.5596 36.6024C34.4993 36.6895 34.4139 36.7562 34.3147 36.7934L32.0168 37.6549C31.7923 37.74 31.5988 37.8912 31.4619 38.0885C31.3251 38.2858 31.2512 38.52 31.2502 38.7601V40.1039C31.2502 40.242 31.1953 40.3745 31.0976 40.4721C30.9999 40.5698 30.8675 40.6247 30.7293 40.6247ZM40.1043 40.6247C39.9662 40.6247 39.8337 40.5698 39.736 40.4721C39.6384 40.3745 39.5835 40.242 39.5835 40.1039V38.7601C39.5835 38.2705 39.2752 37.8268 38.8179 37.6539L36.5189 36.7924C36.4197 36.7552 36.3342 36.6886 36.2738 36.6015C36.2135 36.5144 36.1813 36.4109 36.1814 36.3049V34.8362C36.1814 34.698 36.2363 34.5655 36.334 34.4679C36.4316 34.3702 36.5641 34.3153 36.7022 34.3153C36.8404 34.3153 36.9729 34.3702 37.0705 34.4679C37.1682 34.5655 37.2231 34.698 37.2231 34.8362V35.9434L39.1845 36.6789C39.6068 36.8396 39.9705 37.1245 40.2276 37.4961C40.4848 37.8676 40.6234 38.3083 40.6252 38.7601V40.1039C40.6252 40.242 40.5703 40.3745 40.4726 40.4721C40.3749 40.5698 40.2425 40.6247 40.1043 40.6247Z" fill="white"/>
<path d="M35.4166 37.8331C34.9377 37.8325 34.4786 37.642 34.14 37.3034C33.8014 36.9648 33.6109 36.5057 33.6104 36.0268V34.5664H34.652V36.0268C34.6593 36.2246 34.743 36.4118 34.8855 36.5491C35.028 36.6865 35.2182 36.7632 35.4161 36.7632C35.614 36.7632 35.8042 36.6865 35.9467 36.5491C36.0891 36.4118 36.1728 36.2246 36.1801 36.0268V34.5664H37.2218V36.0268C37.2218 37.0216 36.4124 37.8331 35.4166 37.8331Z" fill="white"/>
</g>
<defs>
<clipPath id="clip0_407_206">
<rect width="50" height="50" fill="white"/>
</clipPath>
</defs>
</svg>
