<svg width="25" height="25" viewBox="0 0 25 25" fill="none" xmlns="http://www.w3.org/2000/svg">
<path d="M16.6665 3.125V5.2085H18.75M16.6665 3.125L18.75 5.2085M16.6665 3.125H7.2915C7.01528 3.125 6.75037 3.23473 6.55505 3.43005C6.35973 3.62537 6.25 3.89028 6.25 4.1665V11.4585L11.927 15.24C12.097 15.3522 12.2963 15.4121 12.5 15.4121C12.7037 15.4121 12.903 15.3522 13.073 15.24L18.75 11.458V5.2085" stroke="#203815" stroke-linecap="round" stroke-linejoin="round"/>
<path d="M13.0727 15.24L20.2602 10.4165C20.4168 10.3133 20.5985 10.2543 20.7859 10.2458C20.9734 10.2373 21.1596 10.2796 21.325 10.3682C21.4904 10.4568 21.6288 10.5884 21.7256 10.7492C21.8223 10.91 21.8738 11.0939 21.8747 11.2815V20.8335C21.8747 21.1097 21.7649 21.3746 21.5696 21.57C21.3743 21.7653 21.1094 21.875 20.8332 21.875H4.16617C3.88994 21.875 3.62503 21.7653 3.42972 21.57C3.2344 21.3746 3.12467 21.1097 3.12467 20.8335V11.323C3.11795 11.1319 3.16397 10.9425 3.25769 10.7758C3.35141 10.6091 3.48921 10.4714 3.656 10.3777C3.82279 10.2841 4.01213 10.2382 4.20327 10.2451C4.39442 10.2519 4.57999 10.3112 4.73967 10.4165L11.9267 15.198C12.0926 15.3165 12.2897 15.3836 12.4934 15.391C12.6972 15.3984 12.8986 15.3462 13.0727 15.24Z" stroke="#9DE57B" stroke-linecap="round" stroke-linejoin="round"/>
</svg>
