<svg width="18" height="18" viewBox="0 0 18 18" fill="none" xmlns="http://www.w3.org/2000/svg">
<path d="M9 6.0875C7.3875 6.0875 6.0875 7.4 6.0875 9C6.0875 10.6 7.4 11.9125 9 11.9125C10.6 11.9125 11.9125 10.6 11.9125 9C11.9125 7.4 10.6 6.0875 9 6.0875ZM17.75 9C17.75 7.7875 17.75 6.6 17.6875 5.3875C17.625 3.9875 17.3 2.7375 16.275 1.725C15.25 0.7 14.0125 0.375 12.6125 0.3125C11.4 0.25 10.2125 0.25 9 0.25C7.7875 0.25 6.6 0.25 5.3875 0.3125C3.9875 0.375 2.7375 0.7 1.725 1.725C0.7 2.75 0.375 3.9875 0.3125 5.3875C0.25 6.6 0.25 7.7875 0.25 9C0.25 10.2125 0.25 11.4 0.3125 12.6125C0.375 14.0125 0.7 15.2625 1.725 16.275C2.75 17.3 3.9875 17.625 5.3875 17.6875C6.6 17.75 7.7875 17.75 9 17.75C10.2125 17.75 11.4 17.75 12.6125 17.6875C14.0125 17.625 15.2625 17.3 16.275 16.275C17.3 15.25 17.625 14.0125 17.6875 12.6125C17.7625 11.4125 17.75 10.2125 17.75 9ZM9 13.4875C6.5125 13.4875 4.5125 11.4875 4.5125 9C4.5125 6.5125 6.5125 4.5125 9 4.5125C11.4875 4.5125 13.4875 6.5125 13.4875 9C13.4875 11.4875 11.4875 13.4875 9 13.4875ZM13.675 5.375C13.1 5.375 12.625 4.9125 12.625 4.325C12.625 3.7375 13.0875 3.275 13.675 3.275C14.2625 3.275 14.725 3.7375 14.725 4.325C14.7282 4.46192 14.7032 4.59803 14.6516 4.72489C14.6 4.85176 14.5228 4.96667 14.425 5.0625C14.3292 5.16034 14.2143 5.23746 14.0874 5.28906C13.9605 5.34067 13.8244 5.36566 13.6875 5.3625L13.675 5.375Z" fill="white"/>
</svg>
