<svg width="25" height="24" viewBox="0 0 25 24" fill="none" xmlns="http://www.w3.org/2000/svg">
<path d="M12.3335 22C12.1002 22 11.9002 21.9333 11.7335 21.8C11.5668 21.6667 11.4418 21.4917 11.3585 21.275C11.0418 20.3417 10.6418 19.4667 10.1585 18.65C9.69183 17.8333 9.0335 16.875 8.1835 15.775C7.3335 14.675 6.64183 13.625 6.1085 12.625C5.59183 11.625 5.3335 10.4167 5.3335 9C5.3335 7.05 6.0085 5.4 7.3585 4.05C8.72516 2.68333 10.3835 2 12.3335 2C14.2835 2 15.9335 2.68333 17.2835 4.05C18.6502 5.4 19.3335 7.05 19.3335 9C19.3335 10.5167 19.0418 11.7833 18.4585 12.8C17.8918 13.8 17.2335 14.7917 16.4835 15.775C15.5835 16.975 14.9002 17.975 14.4335 18.775C13.9835 19.5583 13.6085 20.3917 13.3085 21.275C13.2252 21.5083 13.0918 21.6917 12.9085 21.825C12.7418 21.9417 12.5502 22 12.3335 22ZM12.3335 18.425C12.6168 17.8583 12.9335 17.3 13.2835 16.75C13.6502 16.2 14.1835 15.4667 14.8835 14.55C15.6002 13.6167 16.1835 12.7583 16.6335 11.975C17.1002 11.175 17.3335 10.1833 17.3335 9C17.3335 7.61667 16.8418 6.44167 15.8585 5.475C14.8918 4.49167 13.7168 4 12.3335 4C10.9502 4 9.76683 4.49167 8.7835 5.475C7.81683 6.44167 7.3335 7.61667 7.3335 9C7.3335 10.1833 7.5585 11.175 8.0085 11.975C8.47516 12.7583 9.06683 13.6167 9.7835 14.55C10.4835 15.4667 11.0085 16.2 11.3585 16.75C11.7252 17.3 12.0502 17.8583 12.3335 18.425ZM12.3335 11.5C13.0335 11.5 13.6252 11.2583 14.1085 10.775C14.5918 10.2917 14.8335 9.7 14.8335 9C14.8335 8.3 14.5918 7.70833 14.1085 7.225C13.6252 6.74167 13.0335 6.5 12.3335 6.5C11.6335 6.5 11.0418 6.74167 10.5585 7.225C10.0752 7.70833 9.8335 8.3 9.8335 9C9.8335 9.7 10.0752 10.2917 10.5585 10.775C11.0418 11.2583 11.6335 11.5 12.3335 11.5Z" fill="white"/>
</svg>
