<svg width="21" height="24" viewBox="0 0 21 24" fill="none" xmlns="http://www.w3.org/2000/svg">
<g clip-path="url(#clip0_300_352)">
<path d="M15.5626 8.67129C17.0948 9.766 18.9718 10.4101 20.999 10.4101V6.51116C20.6153 6.51131 20.2327 6.47128 19.8573 6.39172V9.46076C17.8303 9.46076 15.9535 8.81673 14.421 7.72211V15.6788C14.421 19.6592 11.1925 22.8857 7.21041 22.8857C5.72457 22.8857 4.3435 22.4367 3.19629 21.6667C4.50567 23.0049 6.33169 23.8349 8.35179 23.8349C12.3342 23.8349 15.5627 20.6085 15.5627 16.6279V8.67129H15.5626ZM16.9711 4.73773C16.188 3.88272 15.6738 2.77775 15.5626 1.55614V1.05469H14.4807C14.753 2.60729 15.682 3.93374 16.9711 4.73773ZM5.71498 18.6123C5.27745 18.0391 5.04096 17.3377 5.04207 16.6165C5.04207 14.7961 6.51872 13.32 8.34055 13.32C8.68002 13.3198 9.01748 13.3719 9.34109 13.4745V9.48832C8.96292 9.43656 8.58131 9.41449 8.19987 9.42261V12.5252C7.8761 12.4226 7.53847 12.3706 7.19884 12.3708C5.37709 12.3708 3.90053 13.8467 3.90053 15.6674C3.90053 16.9548 4.63856 18.0694 5.71498 18.6123Z" fill="#FF004F"/>
<path d="M14.4213 7.72202C15.9539 8.81665 17.8305 9.46068 19.8577 9.46068V6.39164C18.7261 6.15071 17.7245 5.55976 16.9713 4.73773C15.6822 3.93366 14.7534 2.60721 14.481 1.05469H11.6392V16.6277C11.6327 18.4433 10.1586 19.9133 8.34075 19.9133C7.26958 19.9133 6.31786 19.4029 5.71517 18.6122C4.63892 18.0694 3.9008 16.9547 3.9008 15.6675C3.9008 13.847 5.37737 12.3709 7.19912 12.3709C7.54816 12.3709 7.88457 12.4252 8.20014 12.5253V9.4227C4.28791 9.5035 1.1416 12.6984 1.1416 16.6278C1.1416 18.5894 1.92508 20.3675 3.19673 21.6668C4.34394 22.4367 5.72493 22.8858 7.21085 22.8858C11.1931 22.8858 14.4214 19.6591 14.4214 15.6788L14.4213 7.72202Z" fill="black"/>
<path d="M19.8577 6.39152V5.56186C18.8373 5.56334 17.8371 5.27774 16.9714 4.73769C17.7377 5.57622 18.7468 6.15448 19.8577 6.39169M14.481 1.05457C14.455 0.906223 14.4351 0.756886 14.4213 0.606926V0.105469H10.4974V15.6787C10.4911 17.494 9.01704 18.964 7.19906 18.964C6.68368 18.9648 6.17534 18.8443 5.71512 18.6124C6.3178 19.4029 7.26953 19.9131 8.34069 19.9131C10.1585 19.9131 11.6328 18.4433 11.6392 16.6278V1.05465L14.481 1.05457ZM8.20034 9.42258V8.53918C7.87245 8.49442 7.54189 8.472 7.21096 8.47208C3.22834 8.47208 0 11.6987 0 15.6787C0 18.174 1.26878 20.3731 3.19684 21.6666C1.92519 20.3674 1.14171 18.5892 1.14171 16.6277C1.14171 12.6984 4.28794 9.50338 8.20034 9.42258Z" fill="#00F2EA"/>
</g>
<defs>
<clipPath id="clip0_300_352">
<rect width="21" height="23.7891" fill="white" transform="translate(0 0.105469)"/>
</clipPath>
</defs>
</svg>
