<svg width="53" height="54" viewBox="0 0 53 54" fill="none" xmlns="http://www.w3.org/2000/svg">
<rect y="0.5" width="53" height="53" rx="10" fill="white" fill-opacity="0.16"/>
<path d="M16 23.5C16 26.2848 17.1062 28.9555 19.0754 30.9246C21.0445 32.8937 23.7152 34 26.5 34C29.2848 34 31.9555 32.8937 33.9246 30.9246C35.8937 28.9555 37 26.2848 37 23.5C37 20.7152 35.8937 18.0445 33.9246 16.0754C31.9555 14.1062 29.2848 13 26.5 13C23.7152 13 21.0445 14.1062 19.0754 16.0754C17.1062 18.0445 16 20.7152 16 23.5Z" stroke="white" stroke-width="2.1" stroke-linecap="round" stroke-linejoin="round"/>
<path d="M22.3 24.434C22.3 24.434 23.35 24.434 24.4 26.3002C24.4 26.3002 27.7348 21.634 30.7 20.7002M33.3362 31.2002L34.2742 35.6942C34.8762 38.581 35.1786 40.0244 34.5584 40.709C33.9396 41.3936 32.8644 40.8056 30.714 39.6282L27.5304 37.8852C27.0222 37.608 26.7688 37.468 26.5 37.468C26.2312 37.468 25.9778 37.608 25.4696 37.8852L22.286 39.6282C20.1356 40.8042 19.0604 41.3936 18.4416 40.709C17.8228 40.0244 18.1238 38.581 18.7258 35.6942L19.6638 31.2002" stroke="white" stroke-width="2.1" stroke-linecap="round" stroke-linejoin="round"/>
</svg>
