<svg width="24" height="24" viewBox="0 0 24 24" fill="none" xmlns="http://www.w3.org/2000/svg">
<path d="M18.0781 2H6.92188C4.2036 2 2 4.2036 2 6.92188V18.0781C2 20.7964 4.2036 23 6.92188 23H18.0781C20.7964 23 23 20.7964 23 18.0781V6.92188C23 4.2036 20.7964 2 18.0781 2Z" fill="white"/>
<path d="M18.0781 2H6.92188C4.2036 2 2 4.2036 2 6.92188V18.0781C2 20.7964 4.2036 23 6.92188 23H18.0781C20.7964 23 23 20.7964 23 18.0781V6.92188C23 4.2036 20.7964 2 18.0781 2Z" fill="#0A66C2"/>
<path d="M17.1524 19.857H19.5535C19.6405 19.857 19.7239 19.8224 19.7854 19.7609C19.847 19.6994 19.8816 19.6159 19.8816 19.5289L19.8828 14.456C19.8828 11.8045 19.3115 9.76639 16.2129 9.76639C15.035 9.72259 13.9242 10.3298 13.3248 11.3437C13.3219 11.3486 13.3174 11.3524 13.3121 11.3546C13.3068 11.3567 13.3009 11.3571 13.2954 11.3556C13.2899 11.3541 13.285 11.3508 13.2815 11.3463C13.278 11.3418 13.2761 11.3362 13.276 11.3305V10.3393C13.276 10.2523 13.2414 10.1688 13.1799 10.1073C13.1184 10.0457 13.0349 10.0112 12.9479 10.0112H10.6693C10.5823 10.0112 10.4988 10.0457 10.4373 10.1073C10.3758 10.1688 10.3412 10.2523 10.3412 10.3393V19.5284C10.3412 19.6155 10.3758 19.6989 10.4373 19.7605C10.4988 19.822 10.5823 19.8566 10.6693 19.8566H13.0702C13.1572 19.8566 13.2407 19.822 13.3022 19.7605C13.3638 19.6989 13.3983 19.6155 13.3983 19.5284V14.9861C13.3983 13.7018 13.642 12.4579 15.2343 12.4579C16.8039 12.4579 16.8243 13.9276 16.8243 15.0693V19.5288C16.8243 19.6159 16.8588 19.6993 16.9204 19.7609C16.9819 19.8224 17.0654 19.857 17.1524 19.857ZM5.11719 6.89136C5.11719 7.86458 5.91839 8.66537 6.89169 8.66537C7.86474 8.66528 8.66545 7.864 8.66545 6.89095C8.66528 5.91789 7.8645 5.11719 6.89136 5.11719C5.91798 5.11719 5.11719 5.91814 5.11719 6.89136ZM5.68804 19.857H8.09213C8.17916 19.857 8.26262 19.8224 8.32415 19.7609C8.38569 19.6993 8.42026 19.6159 8.42026 19.5288V10.3393C8.42026 10.2523 8.38569 10.1688 8.32415 10.1073C8.26262 10.0457 8.17916 10.0112 8.09213 10.0112H5.68804C5.60102 10.0112 5.51756 10.0457 5.45602 10.1073C5.39449 10.1688 5.35992 10.2523 5.35992 10.3393V19.5288C5.35992 19.6159 5.39449 19.6993 5.45602 19.7609C5.51756 19.8224 5.60102 19.857 5.68804 19.857Z" fill="white"/>
</svg>
