<svg width="53" height="54" viewBox="0 0 53 54" fill="none" xmlns="http://www.w3.org/2000/svg">
<rect y="0.5" width="53" height="53" rx="10" fill="white" fill-opacity="0.16"/>
<path d="M26.5 40.9999C34.232 40.9999 40.4999 34.7319 40.4999 27C40.4999 19.268 34.232 13 26.5 13C18.768 13 12.5 19.268 12.5 27C12.5 34.7319 18.768 40.9999 26.5 40.9999Z" stroke="white" stroke-width="2.09999"/>
<path d="M26.4999 35.4C31.1391 35.4 34.8999 31.6393 34.8999 27.0001C34.8999 22.3609 31.1391 18.6001 26.4999 18.6001C21.8607 18.6001 18.0999 22.3609 18.0999 27.0001C18.0999 31.6393 21.8607 35.4 26.4999 35.4Z" stroke="white" stroke-width="2.09999"/>
<path d="M26.5 29.8002C28.0464 29.8002 29.3 28.5466 29.3 27.0002C29.3 25.4538 28.0464 24.2002 26.5 24.2002C24.9536 24.2002 23.7 25.4538 23.7 27.0002C23.7 28.5466 24.9536 29.8002 26.5 29.8002Z" stroke="white" stroke-width="2.09999"/>
<path d="M18.0999 27H23.6999M29.2999 27H34.8999M22.2999 34.2743L25.0999 29.4248M27.8999 24.5752L30.6999 19.7256M30.6999 34.2743L27.8999 29.4248M25.0999 24.5752L22.2999 19.7256" stroke="white" stroke-width="2.09999" stroke-linecap="round"/>
</svg>
