<svg width="155" height="34" viewBox="0 0 155 34" fill="none" xmlns="http://www.w3.org/2000/svg">
<path d="M18.074 27.353C18.1056 24.124 17.287 21.4982 16.2456 21.488C15.2043 21.4779 14.3345 24.0872 14.303 27.3162C14.2714 30.5452 15.09 33.171 16.1313 33.1812C17.1727 33.1914 18.0425 30.582 18.074 27.353Z" fill="#FF9400"/>
<path d="M12.0345 26.6197C13.8069 23.9204 14.538 21.2689 13.6675 20.6973C12.797 20.1257 10.6545 21.8505 8.88214 24.5497C7.10973 27.249 6.37863 29.9005 7.24911 30.4721C8.11966 31.0437 10.2621 29.3189 12.0345 26.6197Z" fill="#FF9400"/>
<path d="M7.34311 22.747C10.2935 21.4346 12.3422 19.5994 11.9189 18.6479C11.4957 17.6963 8.76084 17.9889 5.81041 19.3013C2.86 20.6136 0.81133 22.4489 1.23457 23.4004C1.65781 24.3519 4.3927 24.0594 7.34311 22.747Z" fill="#FF9400"/>
<path d="M11.5648 15.9795C11.7232 14.9502 9.2644 13.7176 6.07292 13.2263C2.88134 12.7351 0.165665 13.1713 0.00724495 14.2006C-0.151176 15.2299 2.30765 16.4624 5.49919 16.9537C8.6907 17.4449 11.4064 17.0087 11.5648 15.9795Z" fill="#FF9400"/>
<path d="M12.7107 13.5275C13.4003 12.7472 11.9979 10.3811 9.57835 8.24266C7.15877 6.10425 4.63824 5.0033 3.94859 5.78363C3.25895 6.56397 4.66134 8.93007 7.08095 11.0685C9.50053 13.2069 12.0211 14.3078 12.7107 13.5275Z" fill="#FF9400"/>
<path d="M14.9927 12.0945C15.9947 11.8109 16.0943 9.06221 15.2151 5.95511C14.3359 2.84799 12.8108 0.559037 11.8087 0.842591C10.8067 1.12615 10.7071 3.87482 11.5863 6.98197C12.4655 10.089 13.9906 12.378 14.9927 12.0945Z" fill="#FF9400"/>
<path d="M21.1892 7.07864C22.1296 3.98946 22.0843 1.23935 21.088 0.936091C20.0917 0.632829 18.5218 2.89126 17.5814 5.98044C16.6411 9.06959 16.6864 11.8197 17.6827 12.123C18.679 12.4262 20.2489 10.1678 21.1892 7.07864Z" fill="#FF9400"/>
<path d="M25.6169 11.2528C28.0779 9.16205 29.5263 6.8238 28.852 6.03017C28.1777 5.23652 25.6361 6.28802 23.1752 8.37867C20.7143 10.4694 19.266 12.8076 19.9402 13.6013C20.6145 14.3949 23.156 13.3435 25.6169 11.2528Z" fill="#FF9400"/>
<path d="M27.0809 17.1597C30.2816 16.7315 32.7642 15.5476 32.6261 14.5154C32.488 13.4832 29.7815 12.9936 26.5808 13.4217C23.3803 13.8499 20.8976 15.0338 21.0357 16.066C21.1738 17.0982 23.8803 17.5879 27.0809 17.1597Z" fill="#FF9400"/>
<path d="M31.2098 23.6954C31.6517 22.7525 29.6396 20.8772 26.7156 19.5069C23.7917 18.1366 21.0631 17.7902 20.6212 18.7331C20.1793 19.6762 22.1913 21.5514 25.1153 22.9218C28.0392 24.292 30.7678 24.6384 31.2098 23.6954Z" fill="#FF9400"/>
<path d="M25.0593 30.6532C25.9409 30.0989 25.2622 27.4334 23.5434 24.6997C21.8246 21.9661 19.7165 20.1994 18.8349 20.7537C17.9533 21.308 18.632 23.9735 20.3508 26.7071C22.0696 29.4408 24.1777 31.2075 25.0593 30.6532Z" fill="#FF9400"/>
<path d="M47.4688 25.3003C46.5756 25.3003 45.717 25.1617 44.8931 24.8845C44.0769 24.5996 43.3608 24.1953 42.7448 23.6717C42.1288 23.1404 41.6861 22.5052 41.4166 21.766L44.0615 20.7958C44.1693 21.1038 44.3888 21.3848 44.7199 21.6389C45.051 21.893 45.4552 22.0971 45.9326 22.2511C46.41 22.4051 46.9221 22.4821 47.4688 22.4821C48.0309 22.4821 48.5545 22.3974 49.0396 22.228C49.5324 22.0509 49.9289 21.8083 50.2292 21.5003C50.5295 21.1846 50.6797 20.8189 50.6797 20.4031C50.6797 19.9796 50.5218 19.6331 50.2061 19.3636C49.8904 19.0864 49.4862 18.8669 48.9934 18.7052C48.5006 18.5435 47.9924 18.4203 47.4688 18.3356C46.3215 18.1585 45.2935 17.8852 44.3849 17.5156C43.4763 17.146 42.7564 16.6339 42.2251 15.9794C41.7015 15.3249 41.4397 14.4779 41.4397 13.4384C41.4397 12.4605 41.7207 11.6058 42.2828 10.8743C42.8449 10.1428 43.5841 9.57305 44.5004 9.16495C45.4167 8.75685 46.4062 8.5528 47.4688 8.5528C48.3543 8.5528 49.209 8.6914 50.0329 8.9686C50.8568 9.2458 51.5767 9.65005 52.1927 10.1813C52.8164 10.7126 53.263 11.3517 53.5325 12.0986L50.876 13.0573C50.7682 12.7493 50.5488 12.4682 50.2177 12.2141C49.8866 11.96 49.4823 11.7598 49.0049 11.6135C48.5275 11.4595 48.0155 11.3825 47.4688 11.3825C46.9221 11.3748 46.4023 11.4634 45.9095 11.6482C45.4244 11.8253 45.0279 12.0678 44.7199 12.3758C44.4119 12.6838 44.2579 13.038 44.2579 13.4384C44.2579 13.9543 44.4003 14.3432 44.6852 14.605C44.9778 14.8668 45.3667 15.0593 45.8518 15.1825C46.3369 15.298 46.8759 15.4058 47.4688 15.5059C48.5468 15.6753 49.5439 15.9602 50.4602 16.3606C51.3765 16.761 52.1119 17.2961 52.6663 17.966C53.2207 18.6282 53.4979 19.4406 53.4979 20.4031C53.4979 21.381 53.2207 22.2395 52.6663 22.9787C52.1119 23.7102 51.3765 24.28 50.4602 24.6881C49.5439 25.0963 48.5468 25.3003 47.4688 25.3003ZM58.61 30.775H55.7918V13.45H58.61V14.9168C58.9873 14.3932 59.4493 13.9697 59.996 13.6463C60.5504 13.3152 61.1972 13.1497 61.9364 13.1497C62.7834 13.1497 63.5727 13.3075 64.3042 13.6232C65.0357 13.9389 65.6786 14.3778 66.233 14.9399C66.7951 15.4943 67.2302 16.1373 67.5382 16.8688C67.8539 17.6003 68.0117 18.3857 68.0117 19.225C68.0117 20.0643 67.8539 20.8535 67.5382 21.5927C67.2302 22.3319 66.7951 22.9826 66.233 23.5447C65.6786 24.0991 65.0357 24.5341 64.3042 24.8498C63.5727 25.1656 62.7834 25.3234 61.9364 25.3234C61.1972 25.3234 60.5504 25.1617 59.996 24.8383C59.4493 24.5072 58.9873 24.0798 58.61 23.5562V30.775ZM61.9018 15.8639C61.3166 15.8639 60.793 16.0179 60.331 16.3259C59.869 16.6262 59.5071 17.0305 59.2453 17.5387C58.9835 18.0469 58.8526 18.609 58.8526 19.225C58.8526 19.841 58.9835 20.4069 59.2453 20.9228C59.5071 21.431 59.869 21.8391 60.331 22.1471C60.793 22.4474 61.3166 22.5976 61.9018 22.5976C62.4947 22.5976 63.0375 22.4474 63.5303 22.1471C64.0231 21.8468 64.4158 21.4426 64.7084 20.9344C65.001 20.4185 65.1473 19.8487 65.1473 19.225C65.1473 18.609 65.001 18.0469 64.7084 17.5387C64.4158 17.0305 64.0231 16.6262 63.5303 16.3259C63.0452 16.0179 62.5024 15.8639 61.9018 15.8639ZM69.5751 13.45H72.3933V25H69.5751V13.45ZM71.0073 11.96C70.5915 11.96 70.2412 11.8253 69.9563 11.5558C69.6714 11.2786 69.5289 10.9321 69.5289 10.5163C69.5289 10.1082 69.6714 9.76555 69.9563 9.48835C70.2412 9.21115 70.5877 9.07255 70.9958 9.07255C71.4039 9.07255 71.7465 9.21115 72.0237 9.48835C72.3086 9.76555 72.4511 10.1082 72.4511 10.5163C72.4511 10.9321 72.3125 11.2786 72.0353 11.5558C71.7581 11.8253 71.4154 11.96 71.0073 11.96ZM85.6592 17.7004V25H82.841V18.4396C82.841 17.9853 82.7294 17.5733 82.5061 17.2037C82.2828 16.8264 81.9825 16.53 81.6052 16.3144C81.2356 16.0911 80.8236 15.9794 80.3693 15.9794C79.915 15.9794 79.4992 16.0911 79.1219 16.3144C78.7523 16.53 78.4559 16.8264 78.2326 17.2037C78.017 17.5733 77.9092 17.9853 77.9092 18.4396V25H75.091L75.0794 13.45H77.8976L77.9092 14.4779C78.3019 14.0621 78.7716 13.7349 79.3183 13.4962C79.865 13.2498 80.454 13.1266 81.0854 13.1266C81.9247 13.1266 82.6909 13.3345 83.3839 13.7503C84.0769 14.1584 84.6274 14.7089 85.0355 15.4019C85.4513 16.0872 85.6592 16.8534 85.6592 17.7004ZM88.0281 25V7.675H90.8463V25H88.0281ZM100.756 13.45H103.748L97.4299 30.775H94.4385L96.529 25L92.371 13.45H95.4549L97.9381 21.1423L100.756 13.45ZM106.064 25.3003C105.664 25.3003 105.321 25.1617 105.036 24.8845C104.759 24.5996 104.62 24.2531 104.62 23.845C104.62 23.4523 104.759 23.1135 105.036 22.8286C105.321 22.5437 105.664 22.4012 106.064 22.4012C106.465 22.4012 106.807 22.5437 107.092 22.8286C107.377 23.1135 107.519 23.4523 107.519 23.845C107.519 24.2531 107.377 24.5996 107.092 24.8845C106.807 25.1617 106.465 25.3003 106.064 25.3003ZM117.274 21.5234L119.815 22.8979C119.284 23.6217 118.618 24.203 117.817 24.6419C117.016 25.0809 116.142 25.3003 115.195 25.3003C114.132 25.3003 113.162 25.0269 112.284 24.4802C111.414 23.9335 110.717 23.202 110.194 22.2857C109.678 21.3617 109.42 20.3415 109.42 19.225C109.42 18.378 109.57 17.5887 109.87 16.8572C110.171 16.118 110.583 15.4712 111.106 14.9168C111.638 14.3547 112.254 13.9158 112.954 13.6001C113.655 13.2844 114.402 13.1266 115.195 13.1266C116.142 13.1266 117.016 13.346 117.817 13.7849C118.618 14.2238 119.284 14.8129 119.815 15.5521L117.274 16.915C117.004 16.607 116.685 16.3683 116.315 16.1989C115.953 16.0295 115.58 15.9448 115.195 15.9448C114.641 15.9448 114.14 16.0988 113.693 16.4068C113.247 16.7071 112.893 17.1075 112.631 17.608C112.369 18.1008 112.238 18.6398 112.238 19.225C112.238 19.8025 112.369 20.3415 112.631 20.842C112.893 21.3348 113.247 21.7313 113.693 22.0316C114.14 22.3319 114.641 22.4821 115.195 22.4821C115.595 22.4821 115.976 22.3974 116.338 22.228C116.7 22.0509 117.012 21.816 117.274 21.5234ZM126.61 25.3003C125.547 25.3003 124.577 25.0269 123.699 24.4802C122.829 23.9335 122.132 23.202 121.608 22.2857C121.093 21.3617 120.835 20.3415 120.835 19.225C120.835 18.378 120.985 17.5887 121.285 16.8572C121.585 16.118 121.997 15.4712 122.521 14.9168C123.052 14.3547 123.668 13.9158 124.369 13.6001C125.07 13.2844 125.816 13.1266 126.61 13.1266C127.672 13.1266 128.639 13.3999 129.509 13.9466C130.386 14.4933 131.083 15.2287 131.599 16.1527C132.123 17.0767 132.385 18.1008 132.385 19.225C132.385 20.0643 132.234 20.8497 131.934 21.5812C131.634 22.3127 131.218 22.9595 130.687 23.5216C130.163 24.076 129.551 24.511 128.85 24.8267C128.157 25.1425 127.41 25.3003 126.61 25.3003ZM126.61 22.4821C127.172 22.4821 127.676 22.3319 128.123 22.0316C128.569 21.7313 128.92 21.3348 129.174 20.842C129.435 20.3492 129.566 19.8102 129.566 19.225C129.566 18.6244 129.432 18.0777 129.162 17.5849C128.9 17.0844 128.542 16.6878 128.088 16.3952C127.641 16.0949 127.149 15.9448 126.61 15.9448C126.055 15.9448 125.555 16.0949 125.108 16.3952C124.661 16.6955 124.307 17.0959 124.045 17.5964C123.784 18.0969 123.653 18.6398 123.653 19.225C123.653 19.8333 123.788 20.3838 124.057 20.8766C124.327 21.3694 124.685 21.7621 125.131 22.0547C125.585 22.3396 126.078 22.4821 126.61 22.4821ZM134.183 25V13.45H137.001V14.4779C137.394 14.0621 137.864 13.7349 138.41 13.4962C138.957 13.2498 139.546 13.1266 140.177 13.1266C140.978 13.1266 141.714 13.3152 142.383 13.6925C143.061 14.0698 143.6 14.5742 144 15.2056C144.409 14.5742 144.948 14.0698 145.617 13.6925C146.287 13.3152 147.023 13.1266 147.823 13.1266C148.67 13.1266 149.437 13.3345 150.122 13.7503C150.815 14.1584 151.365 14.7089 151.774 15.4019C152.189 16.0872 152.397 16.8534 152.397 17.7004V25H149.579V18.4511C149.579 18.0045 149.467 17.5964 149.244 17.2268C149.029 16.8495 148.736 16.5492 148.366 16.3259C148.004 16.0949 147.596 15.9794 147.142 15.9794C146.688 15.9794 146.276 16.0911 145.906 16.3144C145.544 16.53 145.252 16.8226 145.028 17.1922C144.805 17.5618 144.693 17.9814 144.693 18.4511V25H141.875V18.4511C141.875 17.9814 141.767 17.5618 141.552 17.1922C141.336 16.8226 141.044 16.53 140.674 16.3144C140.304 16.0911 139.892 15.9794 139.438 15.9794C138.992 15.9794 138.583 16.0949 138.214 16.3259C137.844 16.5492 137.548 16.8495 137.325 17.2268C137.109 17.5964 137.001 18.0045 137.001 18.4511V25H134.183Z" fill="#2C1B04"/>
</svg>
