<svg width="24" height="24" viewBox="0 0 24 24" fill="none" xmlns="http://www.w3.org/2000/svg">
<path d="M14.9999 5.40039C14.9999 6.19604 14.6838 6.9591 14.1212 7.52171C13.5586 8.08432 12.7956 8.40039 11.9999 8.40039C11.2043 8.40039 10.4412 8.08432 9.87858 7.52171C9.31597 6.9591 8.9999 6.19604 8.9999 5.40039C8.9999 4.60474 9.31597 3.84168 9.87858 3.27907C10.4412 2.71646 11.2043 2.40039 11.9999 2.40039C12.7956 2.40039 13.5586 2.71646 14.1212 3.27907C14.6838 3.84168 14.9999 4.60474 14.9999 5.40039ZM20.9999 6.00039C20.9999 6.63691 20.747 7.24736 20.297 7.69745C19.8469 8.14753 19.2364 8.40039 18.5999 8.40039C17.9634 8.40039 17.3529 8.14753 16.9028 7.69745C16.4528 7.24736 16.1999 6.63691 16.1999 6.00039C16.1999 5.36387 16.4528 4.75342 16.9028 4.30333C17.3529 3.85325 17.9634 3.60039 18.5999 3.60039C19.2364 3.60039 19.8469 3.85325 20.297 4.30333C20.747 4.75342 20.9999 5.36387 20.9999 6.00039ZM5.3999 8.40039C6.03642 8.40039 6.64687 8.14753 7.09696 7.69745C7.54705 7.24736 7.7999 6.63691 7.7999 6.00039C7.7999 5.36387 7.54705 4.75342 7.09696 4.30333C6.64687 3.85325 6.03642 3.60039 5.3999 3.60039C4.76338 3.60039 4.15293 3.85325 3.70285 4.30333C3.25276 4.75342 2.9999 5.36387 2.9999 6.00039C2.9999 6.63691 3.25276 7.24736 3.70285 7.69745C4.15293 8.14753 4.76338 8.40039 5.3999 8.40039ZM7.1999 11.1004C7.1999 10.2724 7.8719 9.60039 8.6999 9.60039H15.2999C16.1279 9.60039 16.7999 10.2724 16.7999 11.1004V16.8004C16.7999 18.0734 16.2942 19.2943 15.394 20.1945C14.4938 21.0947 13.2729 21.6004 11.9999 21.6004C10.7269 21.6004 9.50596 21.0947 8.60579 20.1945C7.70562 19.2943 7.1999 18.0734 7.1999 16.8004V11.1004ZM5.9999 11.1004C5.9999 10.5448 6.1679 10.03 6.4547 9.60039H3.8999C3.0719 9.60039 2.3999 10.2724 2.3999 11.1004V15.6004C2.39985 16.1141 2.50975 16.6219 2.72222 17.0897C2.9347 17.5574 3.24483 17.9743 3.63177 18.3122C4.01871 18.6502 4.4735 18.9014 4.96558 19.049C5.45766 19.1966 5.97564 19.2372 6.4847 19.168C6.16419 18.4198 5.99924 17.6143 5.9999 16.8004V11.1004ZM17.9999 16.8004C17.9999 17.6404 17.8271 18.442 17.5151 19.168C17.6735 19.1896 17.8351 19.2004 17.9999 19.2004C18.9547 19.2004 19.8704 18.8211 20.5455 18.146C21.2206 17.4708 21.5999 16.5552 21.5999 15.6004V11.1004C21.5999 10.2724 20.9279 9.60039 20.0999 9.60039H17.5451C17.8331 10.03 17.9999 10.5448 17.9999 11.1004V16.8004Z" fill="#222222"/>
</svg>
