<svg width="53" height="54" viewBox="0 0 53 54" fill="none" xmlns="http://www.w3.org/2000/svg">
<rect y="0.5" width="53" height="53" rx="10" fill="white" fill-opacity="0.16"/>
<path d="M26.5003 28.4002V35.4001M18.1004 41H34.9002M27.952 14.2141L29.429 17.1947C29.6306 17.6091 30.1682 18.0067 30.6218 18.0837L33.3014 18.5317C35.015 18.8201 35.4182 20.0731 34.1834 21.3107L32.1002 23.4106C31.7474 23.7662 31.5542 24.4522 31.6634 24.9436L32.2598 27.542C32.7302 29.6 31.6466 30.3965 29.8406 29.32L27.3304 27.822C26.8769 27.5504 26.1293 27.5504 25.6673 27.822L23.1557 29.32C21.3581 30.3965 20.2661 29.5916 20.7365 27.542L21.3329 24.9422C21.4421 24.4522 21.2489 23.7662 20.8961 23.4106L18.8129 21.3107C17.5866 20.0731 17.9814 18.8201 19.6949 18.5317L22.3745 18.0837C22.8197 18.0067 23.3573 17.6091 23.5589 17.1947L25.0373 14.2127C25.8437 12.5958 27.154 12.5958 27.952 14.2127M20.9003 39.6C20.9003 37.6205 20.9003 36.6307 21.5163 36.0161C22.1295 35.4001 23.1193 35.4001 25.1003 35.4001H27.9002C29.8798 35.4001 30.8696 35.4001 31.4842 36.0161C32.1002 36.6307 32.1002 37.6205 32.1002 39.6V41H20.9003V39.6Z" stroke="white" stroke-width="2.09998" stroke-linecap="round" stroke-linejoin="round"/>
</svg>
